<mxfile host="app.diagrams.net" modified="2024-03-21T01:51:53.480Z" agent="Mozilla/5.0 (Windows NT 10.0; Win64; x64) AppleWebKit/537.36 (KHTML, like Gecko) Chrome/122.0.0.0 Safari/537.36" etag="P4iF_IXKOhyiv7vvzwJs" version="24.0.7" type="github">
  <diagram name="第 1 页" id="iJ_StzI4RyBcfN-M5i3P">
    <mxGraphModel dx="1784" dy="679" grid="1" gridSize="10" guides="1" tooltips="1" connect="1" arrows="1" fold="1" page="1" pageScale="1" pageWidth="827" pageHeight="1169" math="0" shadow="0">
      <root>
        <mxCell id="0" />
        <mxCell id="1" parent="0" />
        <mxCell id="yf16CdO8YpfE5HRmcU5y-1" value="" style="rounded=0;whiteSpace=wrap;html=1;fillColor=none;dashed=1;strokeColor=#FF8000;" vertex="1" parent="1">
          <mxGeometry x="10" y="140" width="750" height="590" as="geometry" />
        </mxCell>
        <mxCell id="yf16CdO8YpfE5HRmcU5y-2" value="第三方系统集成&lt;div&gt;&lt;br&gt;&lt;/div&gt;&lt;div&gt;&lt;br&gt;&lt;/div&gt;&lt;div&gt;钉钉&lt;/div&gt;&lt;div&gt;企业微信&lt;/div&gt;" style="rounded=0;whiteSpace=wrap;html=1;" vertex="1" parent="1">
          <mxGeometry x="-120" y="140" width="120" height="590" as="geometry" />
        </mxCell>
        <mxCell id="yf16CdO8YpfE5HRmcU5y-3" value="" style="rounded=0;whiteSpace=wrap;html=1;" vertex="1" parent="1">
          <mxGeometry x="20" y="150" width="730" height="120" as="geometry" />
        </mxCell>
        <mxCell id="yf16CdO8YpfE5HRmcU5y-4" value="" style="rounded=0;whiteSpace=wrap;html=1;" vertex="1" parent="1">
          <mxGeometry x="20" y="290" width="730" height="120" as="geometry" />
        </mxCell>
        <mxCell id="yf16CdO8YpfE5HRmcU5y-5" value="" style="rounded=0;whiteSpace=wrap;html=1;" vertex="1" parent="1">
          <mxGeometry x="20" y="440" width="730" height="120" as="geometry" />
        </mxCell>
        <mxCell id="yf16CdO8YpfE5HRmcU5y-6" value="" style="rounded=0;whiteSpace=wrap;html=1;" vertex="1" parent="1">
          <mxGeometry x="20" y="600" width="730" height="120" as="geometry" />
        </mxCell>
        <mxCell id="yf16CdO8YpfE5HRmcU5y-7" value="" style="rounded=0;whiteSpace=wrap;html=1;" vertex="1" parent="1">
          <mxGeometry x="770" y="140" width="40" height="590" as="geometry" />
        </mxCell>
        <mxCell id="yf16CdO8YpfE5HRmcU5y-8" value="" style="rounded=0;whiteSpace=wrap;html=1;" vertex="1" parent="1">
          <mxGeometry x="827" y="140" width="43" height="590" as="geometry" />
        </mxCell>
      </root>
    </mxGraphModel>
  </diagram>
</mxfile>
